<svg width="53" height="53" viewBox="0 0 53 53" fill="none" xmlns="http://www.w3.org/2000/svg">
<g filter="url(#filter0_d_145_491)">
<rect x="4" width="45" height="44" rx="22" fill="#274156"/>
<path d="M28.2578 13.9219C28.2578 13.5116 28.0911 13.1182 27.7944 12.8281C27.4978 12.538 27.0954 12.375 26.6758 12.375C26.2562 12.375 25.8538 12.538 25.5571 12.8281C25.2604 13.1182 25.0938 13.5116 25.0938 13.9219V20.625H18.2383C17.8187 20.625 17.4163 20.788 17.1196 21.0781C16.8229 21.3682 16.6562 21.7616 16.6562 22.1719C16.6562 22.5821 16.8229 22.9756 17.1196 23.2657C17.4163 23.5558 17.8187 23.7188 18.2383 23.7188H25.0938V30.4219C25.0938 30.8321 25.2604 31.2256 25.5571 31.5157C25.8538 31.8058 26.2562 31.9688 26.6758 31.9688C27.0954 31.9688 27.4978 31.8058 27.7944 31.5157C28.0911 31.2256 28.2578 30.8321 28.2578 30.4219V23.7188H35.1133C35.5329 23.7188 35.9353 23.5558 36.2319 23.2657C36.5286 22.9756 36.6953 22.5821 36.6953 22.1719C36.6953 21.7616 36.5286 21.3682 36.2319 21.0781C35.9353 20.788 35.5329 20.625 35.1133 20.625H28.2578V13.9219Z" fill="#ECF3FB"/>
</g>
<defs>
<filter id="filter0_d_145_491" x="0" y="0" width="53" height="53" filterUnits="userSpaceOnUse" color-interpolation-filters="sRGB">
<feFlood flood-opacity="0" result="BackgroundImageFix"/>
<feColorMatrix in="SourceAlpha" type="matrix" values="0 0 0 0 0 0 0 0 0 0 0 0 0 0 0 0 0 0 127 0" result="hardAlpha"/>
<feOffset dy="5"/>
<feGaussianBlur stdDeviation="2"/>
<feComposite in2="hardAlpha" operator="out"/>
<feColorMatrix type="matrix" values="0 0 0 0 0 0 0 0 0 0 0 0 0 0 0 0 0 0 0.25 0"/>
<feBlend mode="normal" in2="BackgroundImageFix" result="effect1_dropShadow_145_491"/>
<feBlend mode="normal" in="SourceGraphic" in2="effect1_dropShadow_145_491" result="shape"/>
</filter>
</defs>
</svg>
