<svg width="34" height="35" viewBox="0 0 34 35" fill="none" xmlns="http://www.w3.org/2000/svg">
<g filter="url(#filter0_d_248_508)">
<rect x="4" width="26" height="26" rx="13" fill="#274156"/>
<path d="M24.855 11.645L17.355 4.14503C17.2613 4.0519 17.1346 3.99963 17.0025 3.99963C16.8704 3.99963 16.7437 4.0519 16.65 4.14503L9.15001 11.645C9.0681 11.7407 9.0253 11.8637 9.03016 11.9896C9.03502 12.1154 9.08718 12.2348 9.17623 12.3238C9.26528 12.4129 9.38465 12.465 9.51049 12.4699C9.63633 12.4747 9.75936 12.4319 9.85501 12.35L17 5.20503L24.145 12.355C24.2407 12.4369 24.3637 12.4797 24.4895 12.4749C24.6154 12.47 24.7347 12.4179 24.8238 12.3288C24.9128 12.2398 24.965 12.1204 24.9699 11.9946C24.9747 11.8687 24.9319 11.7457 24.85 11.65L24.855 11.645Z" fill="#ECF3FB"/>
<path d="M22 19H19.5V14H14.5V19H12V12L11 13V19C11 19.2652 11.1054 19.5196 11.2929 19.7071C11.4804 19.8946 11.7348 20 12 20H15.5V15H18.5V20H22C22.2652 20 22.5196 19.8946 22.7071 19.7071C22.8946 19.5196 23 19.2652 23 19V12.88L22 11.88V19Z" fill="#ECF3FB"/>
</g>
<defs>
<filter id="filter0_d_248_508" x="0" y="0" width="34" height="35" filterUnits="userSpaceOnUse" color-interpolation-filters="sRGB">
<feFlood flood-opacity="0" result="BackgroundImageFix"/>
<feColorMatrix in="SourceAlpha" type="matrix" values="0 0 0 0 0 0 0 0 0 0 0 0 0 0 0 0 0 0 127 0" result="hardAlpha"/>
<feOffset dy="5"/>
<feGaussianBlur stdDeviation="2"/>
<feComposite in2="hardAlpha" operator="out"/>
<feColorMatrix type="matrix" values="0 0 0 0 0 0 0 0 0 0 0 0 0 0 0 0 0 0 0.25 0"/>
<feBlend mode="normal" in2="BackgroundImageFix" result="effect1_dropShadow_248_508"/>
<feBlend mode="normal" in="SourceGraphic" in2="effect1_dropShadow_248_508" result="shape"/>
</filter>
</defs>
</svg>
