<svg width="26" height="26" viewBox="0 0 26 26" fill="none" xmlns="http://www.w3.org/2000/svg">
<circle cx="13" cy="13" r="13" fill="#12A454"/>
<path d="M11.0126 20.3876H16.2626M11.0126 17.7626H16.2626M11.0126 12.5126H7.87481C7.70178 12.5125 7.53265 12.4612 7.38879 12.365C7.24493 12.2689 7.13281 12.1322 7.0666 11.9724C7.00038 11.8125 6.98306 11.6366 7.0168 11.4669C7.05055 11.2972 7.13386 11.1413 7.25619 11.0189L13.0189 5.25619C13.183 5.09215 13.4055 5 13.6376 5C13.8696 5 14.0921 5.09215 14.2562 5.25619L20.0189 11.0189C20.1413 11.1413 20.2246 11.2972 20.2583 11.4669C20.2921 11.6366 20.2747 11.8125 20.2085 11.9724C20.1423 12.1322 20.0302 12.2689 19.8863 12.365C19.7425 12.4612 19.5733 12.5125 19.4003 12.5126H16.2626V15.1376H11.0126V12.5126Z" stroke="#ECF3FB" stroke-width="2" stroke-linecap="round" stroke-linejoin="round"/>
</svg>
