<svg width="26" height="26" viewBox="0 0 26 26" fill="none" xmlns="http://www.w3.org/2000/svg">
<circle cx="13" cy="13" r="13" fill="#E83F5B"/>
<path d="M11.0126 5.61244H16.2626M11.0126 8.23744H16.2626M11.0126 13.4874H7.87481C7.70178 13.4875 7.53265 13.5388 7.38879 13.635C7.24493 13.7311 7.13281 13.8678 7.0666 14.0276C7.00038 14.1875 6.98306 14.3634 7.0168 14.5331C7.05055 14.7028 7.13386 14.8587 7.25619 14.9811L13.0189 20.7438C13.183 20.9078 13.4055 21 13.6376 21C13.8696 21 14.0921 20.9078 14.2562 20.7438L20.0189 14.9811C20.1413 14.8587 20.2246 14.7028 20.2583 14.5331C20.2921 14.3634 20.2747 14.1875 20.2085 14.0276C20.1423 13.8678 20.0302 13.7311 19.8863 13.635C19.7425 13.5388 19.5733 13.4875 19.4003 13.4874H16.2626V10.8624H11.0126V13.4874Z" stroke="#ECF3FB" stroke-width="2" stroke-linecap="round" stroke-linejoin="round"/>
</svg>
