<svg width="34" height="35" viewBox="0 0 34 35" fill="none" xmlns="http://www.w3.org/2000/svg">
<g filter="url(#filter0_d_145_475)">
<rect x="4" width="26" height="26" rx="13" fill="#274156"/>
<path d="M10 17.6667V16.048C10 15.7174 10.0826 15.4112 10.2479 15.1292C10.4132 14.8473 10.6417 14.6334 10.9333 14.4875C11.0694 14.4195 11.2007 14.3563 11.3271 14.298C11.4632 14.2396 11.6042 14.1862 11.75 14.1375V17.6667H10ZM12.3333 13.5834C11.8472 13.5834 11.434 13.4132 11.0938 13.073C10.7535 12.7327 10.5833 12.3195 10.5833 11.8334C10.5833 11.3473 10.7535 10.9341 11.0938 10.5938C11.434 10.2535 11.8472 10.0834 12.3333 10.0834C12.8194 10.0834 13.2326 10.2535 13.5729 10.5938C13.9132 10.9341 14.0833 11.3473 14.0833 11.8334C14.0833 12.3195 13.9132 12.7327 13.5729 13.073C13.2326 13.4132 12.8194 13.5834 12.3333 13.5834ZM12.3333 12.4167C12.4986 12.4167 12.6347 12.3632 12.7417 12.2563C12.8583 12.1396 12.9167 11.9987 12.9167 11.8334C12.9167 11.6681 12.8583 11.532 12.7417 11.425C12.6347 11.3084 12.4986 11.25 12.3333 11.25C12.1681 11.25 12.0271 11.3084 11.9104 11.425C11.8035 11.532 11.75 11.6681 11.75 11.8334C11.75 11.9987 11.8035 12.1396 11.9104 12.2563C12.0271 12.3632 12.1681 12.4167 12.3333 12.4167ZM12.3333 17.6667V16.0334C12.3333 15.7028 12.416 15.4014 12.5812 15.1292C12.7563 14.8473 12.9847 14.6334 13.2667 14.4875C13.8694 14.1862 14.4819 13.9625 15.1042 13.8167C15.7264 13.6612 16.3583 13.5834 17 13.5834C17.6417 13.5834 18.2736 13.6612 18.8958 13.8167C19.5181 13.9625 20.1306 14.1862 20.7333 14.4875C21.0153 14.6334 21.2389 14.8473 21.4042 15.1292C21.5792 15.4014 21.6667 15.7028 21.6667 16.0334V17.6667H12.3333ZM13.5 16.5H20.5V16.0334C20.5 15.9264 20.4708 15.8292 20.4125 15.7417C20.3639 15.6542 20.2958 15.5862 20.2083 15.5375C19.6833 15.275 19.1535 15.0806 18.6187 14.9542C18.084 14.8181 17.5444 14.75 17 14.75C16.4556 14.75 15.916 14.8181 15.3812 14.9542C14.8465 15.0806 14.3167 15.275 13.7917 15.5375C13.7042 15.5862 13.6312 15.6542 13.5729 15.7417C13.5243 15.8292 13.5 15.9264 13.5 16.0334V16.5ZM17 13C16.3583 13 15.809 12.7716 15.3521 12.3146C14.8951 11.8577 14.6667 11.3084 14.6667 10.6667C14.6667 10.025 14.8951 9.47574 15.3521 9.01879C15.809 8.56185 16.3583 8.33337 17 8.33337C17.6417 8.33337 18.191 8.56185 18.6479 9.01879C19.1049 9.47574 19.3333 10.025 19.3333 10.6667C19.3333 11.3084 19.1049 11.8577 18.6479 12.3146C18.191 12.7716 17.6417 13 17 13ZM17 11.8334C17.3208 11.8334 17.5931 11.7216 17.8167 11.498C18.05 11.2646 18.1667 10.9875 18.1667 10.6667C18.1667 10.3459 18.05 10.0737 17.8167 9.85004C17.5931 9.61671 17.3208 9.50004 17 9.50004C16.6792 9.50004 16.4021 9.61671 16.1688 9.85004C15.9451 10.0737 15.8333 10.3459 15.8333 10.6667C15.8333 10.9875 15.9451 11.2646 16.1688 11.498C16.4021 11.7216 16.6792 11.8334 17 11.8334ZM21.6667 13.5834C21.1806 13.5834 20.7674 13.4132 20.4271 13.073C20.0868 12.7327 19.9167 12.3195 19.9167 11.8334C19.9167 11.3473 20.0868 10.9341 20.4271 10.5938C20.7674 10.2535 21.1806 10.0834 21.6667 10.0834C22.1528 10.0834 22.566 10.2535 22.9063 10.5938C23.2465 10.9341 23.4167 11.3473 23.4167 11.8334C23.4167 12.3195 23.2465 12.7327 22.9063 13.073C22.566 13.4132 22.1528 13.5834 21.6667 13.5834ZM21.6667 12.4167C21.8319 12.4167 21.9681 12.3632 22.075 12.2563C22.1917 12.1396 22.25 11.9987 22.25 11.8334C22.25 11.6681 22.1917 11.532 22.075 11.425C21.9681 11.3084 21.8319 11.25 21.6667 11.25C21.5014 11.25 21.3604 11.3084 21.2438 11.425C21.1368 11.532 21.0833 11.6681 21.0833 11.8334C21.0833 11.9987 21.1368 12.1396 21.2438 12.2563C21.3604 12.3632 21.5014 12.4167 21.6667 12.4167ZM22.25 17.6667V14.1375C22.3958 14.1862 22.5319 14.2396 22.6583 14.298C22.7944 14.3563 22.9306 14.4195 23.0667 14.4875C23.3583 14.6334 23.5868 14.8473 23.7521 15.1292C23.9174 15.4112 24 15.7174 24 16.048V17.6667H22.25Z" fill="#ECF3FB"/>
</g>
<defs>
<filter id="filter0_d_145_475" x="0" y="0" width="34" height="35" filterUnits="userSpaceOnUse" color-interpolation-filters="sRGB">
<feFlood flood-opacity="0" result="BackgroundImageFix"/>
<feColorMatrix in="SourceAlpha" type="matrix" values="0 0 0 0 0 0 0 0 0 0 0 0 0 0 0 0 0 0 127 0" result="hardAlpha"/>
<feOffset dy="5"/>
<feGaussianBlur stdDeviation="2"/>
<feComposite in2="hardAlpha" operator="out"/>
<feColorMatrix type="matrix" values="0 0 0 0 0 0 0 0 0 0 0 0 0 0 0 0 0 0 0.25 0"/>
<feBlend mode="normal" in2="BackgroundImageFix" result="effect1_dropShadow_145_475"/>
<feBlend mode="normal" in="SourceGraphic" in2="effect1_dropShadow_145_475" result="shape"/>
</filter>
</defs>
</svg>
